HIERARCHY
ROOT Hips
{
  OFFSET 80.6507 87.1455 23.1733
  CHANNELS 6 Xposition Yposition Zposition Zrotation Xrotation Yrotation
  JOINT spine
  {
    OFFSET 0 6.84637 0.3937
    CHANNELS 3 Zrotation Xrotation Yrotation
    JOINT spine1
    {
      OFFSET 0 9.49621 0
      CHANNELS 3 Zrotation Xrotation Yrotation
      JOINT spine2
      {
        OFFSET 0 9.09909 0
        CHANNELS 3 Zrotation Xrotation Yrotation
        JOINT Neck
        {
          OFFSET 0 23.3612 1.11378
          CHANNELS 3 Zrotation Xrotation Yrotation
          JOINT Head
          {
            OFFSET 0 7.05802 0
            CHANNELS 3 Zrotation Xrotation Yrotation
            End Site
            {
              OFFSET 0 17.0844 -5.63419
            }
          }
        }
        JOINT RightShoulder
        {
          OFFSET -3.83136 9.82631 -0.533491
          CHANNELS 3 Zrotation Xrotation Yrotation
          JOINT RightArm
          {
            OFFSET 0 12.8881 0
            CHANNELS 3 Zrotation Xrotation Yrotation
            JOINT RightArmRoll
            {
              OFFSET 0 6.50617 0
              CHANNELS 3 Zrotation Xrotation Yrotation
              JOINT RightForeArm
              {
                OFFSET 0 18.9501 0
                CHANNELS 3 Zrotation Xrotation Yrotation
                JOINT RightForeArmRoll
                {
                  OFFSET 0 7.30092 0
                  CHANNELS 3 Zrotation Xrotation Yrotation
                  JOINT RightHand
                  {
                    OFFSET 0 14.6514 0
                    CHANNELS 3 Zrotation Xrotation Yrotation
                    End Site
                    {
                      OFFSET 0 0 0
                    }
                  }
                }
              }
            }
          }
        }
        JOINT LeftShoulder
        {
          OFFSET 3.83136 9.82631 -0.533491
          CHANNELS 3 Zrotation Xrotation Yrotation
          JOINT LeftArm
          {
            OFFSET 0 12.8881 0
            CHANNELS 3 Zrotation Xrotation Yrotation
            JOINT LeftArmRoll
            {
              OFFSET 0 6.50617 0
              CHANNELS 3 Zrotation Xrotation Yrotation
              JOINT LeftForeArm
              {
                OFFSET 0 18.9501 0
                CHANNELS 3 Zrotation Xrotation Yrotation
                JOINT LeftForeArmRoll
                {
                  OFFSET 0 7.30092 0
                  CHANNELS 3 Zrotation Xrotation Yrotation
                  JOINT LeftHand
                  {
                    OFFSET 0 14.6514 0
                    CHANNELS 3 Zrotation Xrotation Yrotation
                    End Site
                    {
                      OFFSET 0 0 0
                    }
                  }
                }
              }
            }
          }
        }
      }
    }
  }
  JOINT RightUpLeg
  {
    OFFSET -6.06837 -1.11278 -0.933477
    CHANNELS 3 Zrotation Xrotation Yrotation
    JOINT RightUpLegRoll
    {
      OFFSET 0 17.1796 0
      CHANNELS 3 Zrotation Xrotation Yrotation
      JOINT RightLeg
      {
        OFFSET 0 -21.2743 0
        CHANNELS 3 Zrotation Xrotation Yrotation
        JOINT RightLegRoll
        {
          OFFSET 0 21.3439 0
          CHANNELS 3 Zrotation Xrotation Yrotation
          JOINT RightFoot
          {
            OFFSET 0 17.7652 0
            CHANNELS 3 Zrotation Xrotation Yrotation
            JOINT RightToeBase
            {
              OFFSET 0 14.8508 0
              CHANNELS 3 Zrotation Xrotation Yrotation
              End Site
              {
                OFFSET 0.0062947 7.19213 -0.829005
              }
            }
          }
        }
      }
    }
  }
  JOINT LeftUpLeg
  {
    OFFSET 6.06837 -1.11278 -0.933477
    CHANNELS 3 Zrotation Xrotation Yrotation
    JOINT LeftUpLegRoll
    {
      OFFSET 0 17.1797 0
      CHANNELS 3 Zrotation Xrotation Yrotation
      JOINT LeftLeg
      {
        OFFSET 0 21.2742 0
        CHANNELS 3 Zrotation Xrotation Yrotation
        JOINT LeftLegRoll
        {
          OFFSET 0 21.5412 0
          CHANNELS 3 Zrotation Xrotation Yrotation
          JOINT LeftFoot
          {
            OFFSET 0 17.5679 0
            CHANNELS 3 Zrotation Xrotation Yrotation
            JOINT LeftToeBase
            {
              OFFSET 0 14.8508 0
              CHANNELS 3 Zrotation Xrotation Yrotation
              End Site
              {
                OFFSET -0.0282102 7.19214 -0.829005
              }
            }
          }
        }
      }
    }
  }
}
MOTION
Frames: 9
Frame Time: 0.00208333
81.3725 86.1714 24.733 -19.6764 -4.08107 70.8835 -1.0703 -1.67329 1.34518 -2.11278 0.630303 2.79717 -2.14741 2.27388 2.83367 -18.3802 -3.53405 -1.4804 23.4647 8.65698 -4.17398 14.9833 -2.51451 4.28758 -33.1973 65.7038 142.57 1.94456e-005 -1.72031e-006 -3.99994e-006 -13.6867 7.62914 0.283412 -3.24133e-006 -2.34792e-006 -3.01012 8.03009 -4.95109 0.697569 -63.0116 -23.5079 14.3152 -93.8669 -4.32549 -32.7589 2.06083e-007 -9.42068e-007 -8.48377e-006 -8.02435 3.9762 0.694214 1.05616e-006 6.0129e-007 3.01085 -8.03071 -4.95103 -0.697674 -176.223 -6.66818 -1.61222 180 7.01523e-015 178.824 177.763 9.70122 179.832 2.56308e-006 -3.51979e-006 0.0682108 -17.1893 65.9709 17.9918 8.13809 25.3536 -3.31011 -174.272 51.2827 5.16588 4.54188e-006 -4.6773e-006 -0.784137 7.0143 -36.2289 3.97073 -2.32865e-006 -4.95e-006 -0.59317 19.1959 68.3624 -19.8394 -8.13649 25.2327 3.48774 
81.4051 86.1716 24.7547 -19.7177 -4.13142 71.0418 -1.0701 -1.66124 1.35122 -2.11257 0.654292 2.80945 -2.14736 2.29786 2.84597 -18.4566 -3.5473 -1.54678 23.5685 8.64611 -4.24863 14.9588 -2.48861 4.33128 -33.3462 65.8162 142.967 1.94456e-005 -1.72031e-006 -3.99994e-006 -13.8146 7.58085 0.286184 -3.24133e-006 -2.34792e-006 -3.00991 8.03009 -4.95109 0.697569 -62.9473 -23.4959 14.3182 -94.2195 -4.53749 -32.6892 2.06083e-007 -9.42068e-007 -8.48377e-006 -8.10055 4.12787 0.715891 1.05616e-006 6.0129e-007 3.01085 -8.03071 -4.95103 -0.697674 -176.152 -6.67127 -1.63369 180 7.01524e-015 178.827 177.736 9.66445 179.836 2.56308e-006 -3.51979e-006 0.0679451 -17.1792 65.9561 17.9813 8.139 25.3663 -3.2919 -174.337 51.3705 5.24891 4.54188e-006 -4.6773e-006 -0.783597 7.06775 -36.3017 4.00034 -2.32865e-006 -4.95e-006 -0.597733 19.2046 68.3767 -19.8509 -8.13649 25.2327 3.48774 
81.4109 86.1317 24.8018 -19.7534 -4.16999 71.1984 -1.0722 -1.6485 1.35771 -2.11698 0.679572 2.82291 -2.15195 2.32313 2.85953 -18.536 -3.57038 -1.61475 23.6771 8.64232 -4.3252 14.9214 -2.46787 4.37002 -33.4889 65.922 143.335 1.94456e-005 -1.72031e-006 -3.99994e-006 -13.9317 7.52068 0.286524 -3.24133e-006 -2.34792e-006 -3.00971 8.03009 -4.95109 0.697569 -62.8922 -23.4846 14.3203 -94.5558 -4.74407 -32.633 2.06083e-007 -9.42068e-007 -8.48377e-006 -8.16616 4.256 0.734405 1.05616e-006 6.0129e-007 3.01085 -8.03071 -4.95103 -0.697674 -176.097 -6.67915 -1.6475 180 7.01524e-015 178.829 177.709 9.62174 179.839 2.56308e-006 -3.51979e-006 0.0675213 -17.1669 65.9381 17.9686 8.14008 25.3816 -3.26988 -174.421 51.4497 5.34609 4.54188e-006 -4.6773e-006 -0.78298 7.11908 -36.3691 4.02842 -2.32865e-006 -4.95e-006 -0.602118 19.213 68.3906 -19.8622 -8.13649 25.2327 3.48774 
81.4112 86.1064 24.838 -19.7829 -4.19539 71.3524 -1.07689 -1.63497 1.36471 -2.12657 0.706342 2.83766 -2.16174 2.34989 2.87446 -18.6218 -3.60441 -1.68405 23.7942 8.64661 -4.40393 14.8674 -2.45179 4.40484 -33.6192 66.0221 143.661 1.94456e-005 -1.72031e-006 -3.99994e-006 -14.0329 7.45 0.284299 -3.24133e-006 -2.34792e-006 -3.00953 8.03009 -4.95109 0.697569 -62.8495 -23.474 14.3208 -94.8723 -4.94515 -32.5947 2.06083e-007 -9.42068e-007 -8.48377e-006 -8.21789 4.35428 0.748893 1.05616e-006 6.0129e-007 3.01084 -8.03071 -4.95103 -0.697674 -176.059 -6.69252 -1.65265 180 7.01525e-015 178.831 177.682 9.57191 179.843 2.56308e-006 -3.51979e-006 0.0669069 -17.1522 65.9166 17.9534 8.14131 25.3997 -3.24387 -174.526 51.5189 5.45808 4.54188e-006 -4.6773e-006 -0.782276 7.16745 -36.4301 4.0545 -2.32865e-006 -4.95e-006 -0.606267 19.2209 68.404 -19.8734 -8.13649 25.2327 3.48774 
81.4497 86.0783 24.8561 -19.8057 -4.20631 71.503 -1.08445 -1.62055 1.37224 -2.14189 0.734803 2.85381 -2.17729 2.37833 2.89089 -18.7172 -3.6505 -1.7544 23.9239 8.65995 -4.48505 14.7928 -2.43993 4.43679 -33.7313 66.1178 143.934 1.94456e-005 -1.72031e-006 -3.99994e-006 -14.1135 7.37017 0.279376 -3.24133e-006 -2.34792e-006 -3.00937 8.03009 -4.95109 0.697569 -62.8222 -23.464 14.3191 -95.1654 -5.14061 -32.5784 2.06083e-007 -9.42068e-007 -8.48377e-006 -8.25251 4.41642 0.758493 1.05616e-006 6.0129e-007 3.01084 -8.03071 -4.95103 -0.697674 -176.04 -6.71209 -1.64814 180 -7.01525e-015 178.832 177.655 9.51375 179.846 2.56308e-006 -3.51979e-006 0.0660695 -17.1346 65.8908 17.9353 8.1427 25.4207 -3.21365 -174.653 51.5764 5.58553 4.54188e-006 -4.6773e-006 -0.781473 7.21202 -36.4834 4.07812 -2.32865e-006 -4.95e-006 -0.610125 19.2282 68.4168 -19.8843 -8.13649 25.2327 3.48774 
81.4509 86.0497 24.8944 -19.821 -4.20146 71.6494 -1.09516 -1.60513 1.38035 -2.16353 0.765154 2.87146 -2.19917 2.40865 2.90893 -18.8258 -3.70978 -1.82553 24.0698 8.68333 -4.56882 14.694 -2.4318 4.46694 -33.8187 66.2102 144.141 1.94456e-005 -1.72031e-006 -3.99994e-006 -14.1683 7.28254 0.271622 -3.24133e-006 -2.34792e-006 -3.00926 8.03009 -4.95109 0.697569 -62.8134 -23.4545 14.3147 -95.4317 -5.33032 -32.5887 2.06083e-007 -9.42068e-007 -8.48377e-006 -8.26674 4.43613 0.762344 1.05616e-006 6.0129e-007 3.01084 -8.03071 -4.95103 -0.697674 -176.044 -6.73859 -1.633 180 7.01526e-015 178.834 177.629 9.44607 179.85 2.56308e-006 -3.51979e-006 0.0649766 -17.1138 65.8603 17.9139 8.14425 25.4448 -3.179 -174.803 51.6205 5.72904 4.54188e-006 -4.6773e-006 -0.780559 7.25193 -36.5281 4.09878 -2.32865e-006 -4.95e-006 -0.613635 19.2348 68.4288 -19.8948 -8.13649 25.2327 3.48774 
81.6259 86.0901 24.8349 -19.8228 -4.17351 71.7917 -1.11084 -1.58772 1.38983 -2.19513 0.799314 2.89242 -2.23106 2.44278 2.93045 -18.9387 -3.78616 -1.90083 24.2246 8.71981 -4.65747 14.5722 -2.43111 4.49065 -33.8952 66.2948 144.299 1.94456e-005 -1.72031e-006 -3.99994e-006 -14.2043 7.17496 0.259798 -3.24133e-006 -2.34792e-006 -3.00917 8.03009 -4.95109 0.697569 -62.8186 -23.4457 14.3085 -95.6761 -5.51103 -32.6185 2.06083e-007 -9.42068e-007 -8.48377e-006 -8.26545 4.41644 0.760893 1.05616e-006 6.0129e-007 3.01084 -8.03071 -4.95103 -0.697674 -176.081 -6.77966 -1.60057 180 7.01526e-015 178.835 177.603 9.36336 179.853 2.56308e-006 -3.51979e-006 0.0635129 -17.0882 65.8224 17.8873 8.14606 25.4738 -3.13724 -174.992 51.6435 5.90008 4.54188e-006 -4.6773e-006 -0.779508 7.28668 -36.5621 4.11593 -2.32865e-006 -4.95e-006 -0.616804 19.2406 68.4401 -19.9051 -8.13649 25.2327 3.48774 
81.6129 86.0563 24.8828 -19.8073 -4.11916 71.9312 -1.1325 -1.56773 1.40122 -2.23872 0.838457 2.91788 -2.27501 2.48187 2.95667 -19.046 -3.88125 -1.98315 24.3781 8.77049 -4.7524 14.4329 -2.44113 4.50332 -33.9771 66.3671 144.436 1.94456e-005 -1.72031e-006 -3.99994e-006 -14.2324 7.03696 0.243154 -3.24133e-006 -2.34792e-006 -3.00908 8.03009 -4.95109 0.697569 -62.8311 -23.4379 14.3018 -95.9063 -5.68037 -32.6579 2.06083e-007 -9.42068e-007 -8.48377e-006 -8.25594 4.36684 0.755463 1.05616e-006 6.0129e-007 3.01084 -8.03071 -4.95103 -0.697674 -176.156 -6.84011 -1.5471 180 7.01526e-015 178.835 177.575 9.26291 179.856 2.56308e-006 -3.51979e-006 0.0616315 -17.0567 65.776 17.8548 8.14819 25.5092 -3.08664 -175.229 51.6415 6.10616 4.54188e-006 -4.6773e-006 -0.778309 7.31681 -36.5854 4.12966 -2.32865e-006 -4.95e-006 -0.619701 19.246 68.4512 -19.9156 -8.13649 25.2327 3.48774 
81.7189 86.0629 24.7945 -19.778 -4.04319 72.0684 -1.15922 -1.54563 1.41417 -2.29245 0.881666 2.94705 -2.32915 2.52502 2.98678 -19.1486 -3.99264 -2.07131 24.5307 8.83342 -4.85256 14.2784 -2.46073 4.50602 -34.0623 66.4286 144.552 1.94456e-005 -1.72031e-006 -3.99994e-006 -14.2535 6.8724 0.222292 -3.24133e-006 -2.34792e-006 -3.00899 8.03009 -4.95109 0.697569 -62.8503 -23.4311 14.2946 -96.1233 -5.83956 -32.7063 2.06083e-007 -9.42068e-007 -8.48377e-006 -8.23864 4.29073 0.746504 1.05616e-006 6.0129e-007 3.01084 -8.03071 -4.95103 -0.697674 -176.263 -6.91634 -1.47598 180 7.01526e-015 178.835 177.546 9.14783 179.86 2.56308e-006 -3.51979e-006 0.0594023 -17.0206 65.7224 17.8174 8.15056 25.5499 -3.02841 -175.507 51.6184 6.3419 4.54188e-006 -4.6773e-006 -0.776984 7.34312 -36.5996 4.14054 -2.32865e-006 -4.95e-006 -0.622367 19.2509 68.4619 -19.9261 -8.13649 25.2327 3.48774 
